<?xml version="1.0" encoding="UTF-8"?>
<svg width="162px" height="161px" viewBox="0 0 162 161" version="1.1" xmlns="http://www.w3.org/2000/svg" xmlns:xlink="http://www.w3.org/1999/xlink">
    <!-- Generator: Sketch 48.2 (47327) - http://www.bohemiancoding.com/sketch -->
    <title>SRCT_square</title>
    <desc>Created with Sketch.</desc>
    <defs></defs>
    <g id="Page-1" stroke="none" stroke-width="1" fill="none" fill-rule="evenodd">
        <g id="SRCT_square" transform="translate(0.000000, 6.000000)">
            <g id="Clipped" transform="translate(0.000000, 11.000000)" fill="#232A38" fill-rule="nonzero">
                <g id="Group">
                    <path d="M18.142,49.849 L56.129,49.849 C58.163,49.849 60.198,49.849 60.198,46.706 L60.198,35.484 C60.198,32.343 58.163,32.343 56.129,32.343 L34.422,32.343 C26.282,32.343 18.142,32.343 18.142,20.223 L18.142,12.592 C18.142,0.473 26.282,0.473 34.422,0.473 L71.427,0.473 L71.427,10.348 L33.743,10.348 C31.709,10.348 29.674,10.348 29.674,13.49 L29.674,19.325 C29.674,22.467 31.709,22.467 33.743,22.467 L55.452,22.467 C63.592,22.467 71.731,22.467 71.731,34.588 L71.731,47.604 C71.731,59.725 63.591,59.725 55.452,59.725 L18.142,59.725 L18.142,49.849 Z" id="Shape" stroke="#232A38" stroke-width="2"></path>
                    <path d="M127.987,59.726 L108.546,35.483 L95.585,35.483 L95.585,59.726 L83.345,59.726 L83.345,0.473 L122.949,0.473 C131.59,0.473 140.23,0.473 140.23,12.592 L140.23,23.365 C140.23,35.483 131.589,35.483 123.667,35.483 L143.11,59.726 L127.987,59.726 Z M123.667,25.607 C125.827,25.607 127.987,25.607 127.987,22.466 L127.987,13.49 C127.987,10.348 125.827,10.348 123.667,10.348 L95.585,10.348 L95.585,25.608 L123.667,25.608 L123.667,25.607 Z" id="Shape" stroke="#232A38" stroke-width="2"></path>
                    <path d="M18.142,80.168 C18.142,68.225 26.784,68.225 35.425,68.225 L71.427,68.225 L71.427,77.957 L34.704,77.957 C32.544,77.957 30.383,77.957 30.383,81.055 L30.383,113.789 C30.383,116.885 32.544,116.885 34.704,116.885 L71.427,116.885 L71.427,126.619 L35.425,126.619 C26.784,126.619 18.142,126.619 18.142,114.676 L18.142,80.168 Z" id="Shape" stroke="#232A38" stroke-width="2"></path>
                    <polygon id="Shape" stroke="#232A38" stroke-width="2" points="83.345 68.225 144.108 68.225 144.108 77.957 119.804 77.957 119.804 126.619 107.65 126.619 107.65 77.958 83.345 77.958"></polygon>
                    <ellipse id="Oval" cx="5.936" cy="76.088" rx="5.933" ry="6.148"></ellipse>
                </g>
            </g>
            <path d="M5.936,87.106 L5.936,136.43 C5.936,143.18 11.096,148.823 17.168,148.823 L17.105,148.823 L144.636,148.823 C150.526,148.823 155.868,143.391 155.868,136.43 L155.868,12.504 C155.868,5.752 150.708,0.009 144.636,0.009 L17.892,0.009 C12.003,0.009 5.935,5.542 5.935,12.504 L5.935,52.917 C5.935,59.67 12.069,65.823 18.142,65.823" id="Shape" stroke="#242A38" stroke-width="11.808"></path>
        </g>
    </g>
</svg>